# xmcd CD database file
#
# Track frame offsets:
#	150
#	28380
#	46887
#	63340
#	82355
#	102262
#	116085
#	163435
#	172982
#	202722
#	226337
#	264000
#	282037
#
# Disc length: 4076 seconds
#
# Revision: 0
# Processed by: cddbd v1.5.1PL0 Copyright (c) Steve Scherf et al.
# Submitted via: CDex 1.51
#
DISCID=af0fea0d
DTITLE=MOFO Party Band - Call the Doctor
DYEAR=1999
DGENRE=Blues
TTITLE0=Dog
TTITLE1=E Shuffle
TTITLE2=Sugar
TTITLE3=Love Business
TTITLE4=When It Rains It Pours
TTITLE5=Mr. Willie's Bar-B-Que
TTITLE6=Please Correct Me If I'm Wrong
TTITLE7=Nobody But You
TTITLE8=Snake Charmer
TTITLE9=What More Could You Want
TTITLE10=Call the Doctor
TTITLE11=G Shuffle
TTITLE12=Walk On
EXTD=YEAR: 1999
EXTT0=
EXTT1=
EXTT2=
EXTT3=
EXTT4=
EXTT5=
EXTT6=
EXTT7=
EXTT8=
EXTT9=
EXTT10=
EXTT11=
EXTT12=
PLAYORDER=
